<svg xmlns="http://www.w3.org/2000/svg" viewBox="0 0 1600 1600">
<defs>
<symbol id="frog1" viewBox="0 0 511.999 511.999"><g>
	<g>
		<path d="M96.024,56.239c-22.557,0-40.909,18.346-40.909,40.897c0,22.557,18.352,40.909,40.909,40.909    c22.551,0.001,40.897-18.351,40.897-40.909C136.921,74.586,118.575,56.239,96.024,56.239z M96.024,116.886    c-10.89,0.001-19.749-8.858-19.749-19.749c0-10.883,8.859-19.738,19.749-19.738c10.883,0,19.738,8.854,19.738,19.738    C115.761,108.026,106.907,116.886,96.024,116.886z" />
	</g>
</g>
<g>
	<g>
		<path d="M415.963,56.24c-22.557,0-40.91,18.346-40.91,40.897c0,22.557,18.353,40.909,40.91,40.909    c22.551,0,40.897-18.352,40.897-40.909C456.86,74.587,438.514,56.24,415.963,56.24z M415.963,116.886    c-10.891,0-19.75-8.859-19.75-19.749c0-10.883,8.859-19.738,19.75-19.738c10.883,0,19.738,8.854,19.738,19.738    C435.701,108.026,426.847,116.886,415.963,116.886z" />
	</g>
</g>
<g>
	<g>
		<path d="M217.353,120.799c-5.842,0-10.58,4.737-10.58,10.58v3.912c0,5.843,4.737,10.58,10.58,10.58    c5.842,0,10.58-4.737,10.58-10.58v-3.912C227.932,125.536,223.195,120.799,217.353,120.799z" />
	</g>
</g>
<g>
	<g>
		<path d="M288.766,120.799c-5.842,0-10.58,4.737-10.58,10.58v3.912c0,5.843,4.737,10.58,10.58,10.58    c5.842,0,10.58-4.737,10.58-10.58v-3.912C299.346,125.536,294.608,120.799,288.766,120.799z" />
	</g>
</g>
<g>
	<g>
		<path d="M486.104,395.255c31.616-56.285,34.654-110.432,7.062-125.953c-27.604-15.507-72.268,15.254-103.892,71.541    c-1.905,3.391-3.671,6.939-5.313,10.604V328.97c0-20.29-4.775-40.096-13.883-57.989c41.126-16.092,70.637-40.165,83.754-68.594    c0.059-0.127,0.108-0.256,0.165-0.383c0.02-0.048,0.042-0.094,0.061-0.142c4.75-10.442,7.173-21.302,7.173-32.294    c0-2.818-0.162-5.656-0.486-8.489c20.708-14.533,33.299-38.403,33.299-63.943c0-43.053-35.025-78.08-78.08-78.08    c-28.867,0-55.42,16.25-68.866,41.301c-28.11-8.153-59.395-12.436-91.11-12.436c-31.714,0-62.999,4.285-91.108,12.435    c-13.436-25.053-39.984-41.3-68.856-41.3c-43.053,0-78.08,35.026-78.08,78.08c0,25.542,12.588,49.411,33.289,63.939    c-0.325,2.829-0.488,5.668-0.488,8.493c0,11.17,2.489,22.214,7.393,32.818c13.119,28.425,42.639,52.498,83.767,68.593    c-9.106,17.881-13.88,37.687-13.88,57.991v22.471c-1.643-3.656-3.397-7.208-5.302-10.598    C91.1,284.553,46.431,253.802,18.829,269.305C-8.758,284.824-5.72,338.97,25.897,395.256    c17.363,30.905,51.508,58.795,76.683,76.527H38.329c-5.842,0-10.58,4.737-10.58,10.58s4.738,10.58,10.58,10.58h100.136    c0.013,0,0.026-0.002,0.039-0.002c0.011,0,0.021,0.002,0.031,0.002s0.021-0.002,0.031-0.002c0.013,0,0.026,0.002,0.039,0.002    h48.909h138.901h46.965c0.014,0,0.028-0.002,0.041-0.002s0.028,0.002,0.041,0.002h100.136c5.842,0,10.58-4.737,10.58-10.58    s-4.738-10.58-10.58-10.58h-64.18C434.595,454.051,468.739,426.16,486.104,395.255z M44.343,384.892    c-27.943-49.747-27.652-90.108-15.147-97.141c1.58-0.888,3.51-1.332,5.737-1.332c15.409,0,44.924,21.322,69.346,64.79    c18.511,32.948,22.681,84.859,23.54,112.073C104.753,448.218,62.812,417.765,44.343,384.892z M74.884,187.328    c-1.973-5.846-2.978-11.794-2.978-17.757c0-3.81,0.416-7.66,1.236-11.442c0.981-4.525-1.095-9.162-5.124-11.445    c-17.835-10.109-28.914-29.093-28.914-49.547c0-31.386,25.534-56.92,56.92-56.92c23.497,0,44.881,14.764,53.214,36.738    c2.006,5.29,7.814,8.065,13.192,6.301c28.26-9.273,60.611-14.174,93.559-14.174c32.946,0,65.298,4.902,93.558,14.174    c5.373,1.764,11.182-1.01,13.19-6.297c8.344-21.976,29.734-36.742,53.229-36.742c31.386,0,56.92,25.534,56.92,56.92    c0,20.448-11.08,39.433-28.917,49.546c-4.018,2.279-6.094,6.901-5.127,11.419c0.816,3.813,1.23,7.67,1.23,11.467    c0,5.967-1.005,11.917-2.981,17.76c-20.981-0.332-85.301-3.025-137.474-22.868c-28.13-10.705-59.113-10.705-87.242,0    C160.267,184.281,95.865,186.988,74.884,187.328z M86.453,208.215c28.754-1.076,85.125-5.601,133.444-23.979    c23.278-8.858,48.914-8.858,72.194,0c48.31,18.375,104.674,22.901,133.431,23.978c-15.08,19.292-41.162,35.985-74.247,47.094    c-28.699,9.655-61.648,14.759-95.287,14.759c-33.644,0-66.588-5.104-95.281-14.761    C127.625,244.196,101.541,227.506,86.453,208.215z M362.8,471.782h-25.805v-72.864c0-5.842-4.737-10.579-10.58-10.579    c-5.842,0-10.58,4.737-10.58,10.58v72.864H198.094V362.72c0-5.843-4.738-10.58-10.58-10.58c-5.842,0-10.58,4.737-10.58,10.58    v109.063h-27.75V328.97c0-17.949,4.461-35.427,12.957-51.017c28.826,8.689,61.066,13.273,93.846,13.273    c32.776,0,65.021-4.584,93.853-13.273c8.497,15.603,12.959,33.082,12.959,51.017V471.782z M384.193,463.264    c0.88-27.558,5.09-79.24,23.526-112.056c24.424-43.47,53.939-64.793,69.345-64.793c2.225,0,4.155,0.444,5.733,1.331    c12.51,7.037,12.802,47.398-15.142,97.143C449.221,417.703,407.27,448.179,384.193,463.264z" />
	</g>
</g>
<g>
	<g>
		<path d="M326.415,352.14c-5.842,0-10.58,4.737-10.58,10.58v5.544c0,5.843,4.738,10.58,10.58,10.58    c5.842,0,10.58-4.737,10.58-10.58v-5.544C336.995,356.877,332.257,352.14,326.415,352.14z" />
	</g>
</g>
</symbol>
<symbol id="frog2" viewBox="0 0 512.001 512.001"><g>
	<g>
		<path d="M378.203,165.803c-0.018,0-0.037,0-0.056,0c-4.185,0-7.592,3.377-7.622,7.568c-0.031,4.324-5.691,4.758-7.363,4.787    H148.479c-1.704-0.032-7.276-0.486-7.434-5.001c-0.148-4.209-3.712-7.483-7.887-7.35c-4.208,0.148-7.499,3.678-7.351,7.887    c0.508,14.462,13.797,19.712,22.605,19.712h214.75c9.031-0.001,22.504-5.307,22.61-19.925    C385.802,169.272,382.413,165.835,378.203,165.803z" />
	</g>
</g>
<g>
	<g>
		<path d="M17.001,311.687c-0.827-4.563-1.425-9.198-1.777-13.778c-0.322-4.198-4.002-7.368-8.184-7.016    c-4.198,0.321-7.34,3.987-7.017,8.184c0.391,5.097,0.934,10.279,1.976,15.33c1.588,7.697,8.402,6.225,8.861,6.141    C15.003,319.797,17.752,315.83,17.001,311.687z" />
	</g>
</g>
<g>
	<g>
		<g>
			<path d="M495.6,222.143c-14.948-27.17-38.205-45.864-65.853-53.088c4.439-45.358,5.097-77.031,5.105-77.445     c0.001-0.049,0.001-0.097,0.001-0.145c0-38.978-31.711-70.689-70.689-70.689c-35.179,0-64.569,25.707-69.845,59.736h-77.064     c-5.275-34.029-34.666-59.736-69.846-59.736c-38.978,0-70.689,31.711-70.689,70.689c0,0.073,0.001,0.147,0.003,0.221     c0.012,0.425,0.984,32.218,5.455,77.275c-20.86,5.376-39.386,17.355-53.8,34.848c-14.893,18.074-24.449,40.811-27.635,65.75     c-0.534,4.176,2.394,8.272,6.596,8.528c4.209,0.256,8.036-2.747,8.528-6.596c5.531-43.306,31.908-76.825,67.923-87.154     c1.247,11.294,2.705,23.214,4.408,35.529c12.021,86.889,30.332,154.299,54.487,200.71H38.758l-0.22-0.013     c0,0-8.714,0.42-8.714-7.957c0-4.394,3.576-7.969,7.97-7.969c3.145,0,6.004,1.865,7.284,4.752     c1.222,2.757,3.954,4.533,6.969,4.533h23.36c3.524,0,6.589-2.415,7.412-5.841c0.824-3.425-0.808-6.97-3.947-8.573     c-24.524-12.515-44.032-34.919-54.93-63.084c-1.52-3.927-5.934-5.88-9.86-4.359c-3.927,1.519-5.878,5.934-4.358,9.859     c7.076,18.29,17.437,34.447,30.295,47.573c-0.734-0.071-1.476-0.107-2.223-0.107c-12.801,0-23.216,10.414-23.216,23.216     c0,24.385,23.89,23.216,24.029,23.216h89.61c-3.538,2.194-7.569,4.712-12.17,7.604c-2.877,1.807-4.209,5.301-3.268,8.566     c0.94,3.264,3.927,5.512,7.325,5.512h30.652l-4.717,16.508c-0.813,2.847,0.095,5.908,2.33,7.849     c2.234,1.941,5.391,2.415,8.096,1.212l25.643-11.397l3.879,13.964c0.814,2.931,3.293,5.098,6.307,5.512     c0.349,0.049,0.696,0.071,1.041,0.071c2.641,0,5.126-1.374,6.519-3.675l25.359-41.898c1.642-2.657,3.595-6.484,3.794-9.828     h53.557c0.182,3.442,2.131,7.22,3.821,9.867l25.335,41.859c1.574,2.602,4.542,4.022,7.56,3.604     c3.014-0.414,5.492-2.581,6.307-5.511l3.879-13.965l25.643,11.397c1.008,0.448,2.116,0.659,3.14,0.657     c4.199-0.013,7.6-3.42,7.6-7.623c0-0.928-0.166-1.817-0.47-2.641l-4.561-15.962h30.651c3.397,0,6.384-2.248,7.326-5.512     c0.941-3.265-0.392-6.757-3.268-8.566c-4.601-2.892-8.63-5.409-12.169-7.604h89.609c0.138,0,24.029,0.534,24.029-23.216     c0-12.801-10.415-23.216-23.217-23.216c-0.788,0-1.57,0.04-2.344,0.119c18.31-18.724,31.563-43.486,37.331-70.968     C515.866,284.717,511.19,250.482,495.6,222.143z M224.735,420.575c-5.394-16.405-14.245-46.071-19.282-77.688     c-7.213-45.275-3.999-79.09,9.293-97.788c8.913-12.537,22.341-18.631,41.053-18.631c19.675,0,33.679,6.324,42.809,19.333     c29.802,42.459-0.242,141.606-11.584,174.774H224.735z M350.711,442.258v-0.001c-2.393,0-4.645,1.122-6.086,3.032     c-1.44,1.91-1.901,4.385-1.244,6.685l3.011,10.539l-18.81-8.361c-2.027-0.903-4.343-0.874-6.35,0.071     c-2.005,0.946-3.499,2.718-4.092,4.854l-1.52,5.469c0,0-17.295-28.629-17.618-29.322c0.207-0.617,48.949-147.09,13.086-198.184     c-12.026-17.132-30.627-25.82-55.289-25.82c-23.673,0-41.666,8.426-53.48,25.044c-36.087,50.763,11.184,198.365,11.312,198.734     c-0.329,0.746-17.68,29.548-17.68,29.548l-1.519-5.468c-0.594-2.138-2.088-3.909-4.092-4.854     c-2.005-0.947-4.324-0.974-6.349-0.071l-18.811,8.361l3.012-10.539c0.657-2.3,0.196-4.775-1.244-6.685s-3.694-3.032-6.086-3.032     h-13.889c5.022-3.028,8.949-5.322,10.672-6.194c3.927-2.481,5.844-3.976,5.844-7.413c0-1.398-0.388-2.748-1.082-3.917     C99.788,318.712,92.157,97.349,91.966,91.352c0.061-30.52,24.909-55.33,55.443-55.33c29.513,0,53.833,23.064,55.365,52.508     c0.21,4.051,3.557,7.227,7.613,7.227h90.801c4.057,0,7.402-3.176,7.613-7.227c1.533-29.444,25.852-52.508,55.365-52.508     c30.545,0,55.4,24.832,55.443,55.367c-0.106,4.881-5.3,216.227-70.541,333.515c-0.632,1.129-0.983,2.417-0.983,3.746     c0,3.473,2.347,5.478,5.719,7.359c0.012,0.007,0.026,0.007,0.04,0.01c1.674,0.836,5.65,3.158,10.758,6.238H350.711z      M493.845,315.409c-7.788,37.097-30.645,68.537-61.144,84.099c-3.139,1.602-4.77,5.146-3.947,8.573     c0.823,3.426,3.888,5.841,7.412,5.841h23.36c3.016,0,5.747-1.778,6.969-4.534c1.28-2.886,4.138-4.751,7.284-4.751     c4.394,0,7.97,3.575,7.97,7.969c0,8.504-8.93,7.97-8.93,7.97H368.595c25.253-50.271,43.977-119.12,55.708-204.934     c1.477-10.804,2.749-21.259,3.846-31.212c22.57,6.582,41.614,22.379,54.093,45.062     C496.076,254.638,500.196,285.151,493.845,315.409z" />
			<path d="M157.643,436.063C157.576,436.105,157.72,436.043,157.643,436.063L157.643,436.063z" />
		</g>
	</g>
</g>
<g>
	<g>
		<path d="M460.712,340.9c-3.541-2.277-8.258-1.249-10.534,2.292c-2.7,4.201-5.716,8.159-8.965,11.76    c-2.821,3.127-2.573,7.948,0.554,10.767c1.458,1.315,3.283,1.963,5.104,1.963c2.083,0,4.158-0.849,5.664-2.518    c3.8-4.215,7.323-8.834,10.47-13.73C465.28,347.894,464.254,343.176,460.712,340.9z" />
	</g>
</g>
<g>
	<g>
		<path d="M470.136,239.023c-1.926-3.74-6.521-5.214-10.267-3.287c-3.744,1.928-5.215,6.525-3.288,10.268    c9.471,18.395,12.107,40.817,7.421,63.139c-0.865,4.121,1.774,8.162,5.894,9.027c0.529,0.111,1.055,0.165,1.574,0.165    c3.53,0,6.698-2.466,7.453-6.06C484.326,286.536,481.206,260.521,470.136,239.023z" />
	</g>
</g>
<g>
	<g>
		<path d="M364.016,48.924c-26.01,0-47.095,21.085-47.095,47.095c0,26.01,21.085,47.095,47.095,47.095s47.095-21.085,47.095-47.095    C411.112,70.009,390.027,48.924,364.016,48.924z M364.016,127.868c-14.934,0-27.494-10.334-30.92-24.226h61.839    C391.511,117.533,378.95,127.868,364.016,127.868z M333.096,88.395c3.427-13.891,15.987-24.225,30.92-24.225    s27.494,10.334,30.919,24.225H333.096z" />
	</g>
</g>
<g>
	<g>
		<path d="M194.546,94.355c-0.878-25.238-21.601-45.431-47.053-45.431c-25.3,0-45.934,19.952-47.042,44.978    c-0.194,0.673-0.304,1.381-0.304,2.116c0,0.735,0.11,1.443,0.304,2.116c1.107,25.028,21.742,44.979,47.042,44.979    c25.452,0,46.176-20.194,47.053-45.432c0.119-0.536,0.188-1.092,0.188-1.663S194.666,94.892,194.546,94.355z M147.493,127.868    c-14.934,0-27.494-10.334-30.92-24.226h61.839C174.988,117.533,162.427,127.868,147.493,127.868z M116.573,88.395    c3.427-13.891,15.987-24.225,30.92-24.225s27.494,10.334,30.919,24.225H116.573z" />
	</g>
</g>
</symbol>
<symbol id="frog3" viewBox="0 0 78.924 78.925"><g>
	<g>
		<path d="M78.147,23.195c-1.562-1.848-4.018-0.145-6.497,2.992c-2.331,2.948-5.328,4.379-6.79,3.319    c-1.515-1.1-0.114-8.109,2.338-10.106c2.874-2.34,2.326-5.055,0.101-5.888c-1.709-0.64-3.637,0.584-3.604,4.21    c0.046,4.761-2.16,10.605-4.525,10.951c-2.993,0.439-7.081-9.708-6.337-13.597c0.853-4.471-2.836-6.083-4.396-5.09    c-1.487,0.946-2.327,4.006,0.146,6.06c2.993,2.48,5.915,12.852,4.556,14.086c-1.928,1.752-9.392-3.847-10.614-7.226    c-0.876-2.42-3.822-2.385-4.879-0.243c-0.748,1.514-0.015,3.796,3.01,4.34c4.174,0.75,8.729,5.247,9.589,9.109    c0.996,4.478,0.269,8.109,4.177,7.525c6.351-0.948,10.876,3.575,12.628,1.823c1.339-1.339,2.142-8.867,1.496-12.45    c-0.256-1.418,2.589-4.87,5.659-4.87C78.733,28.135,79.899,25.264,78.147,23.195z" />
		<path d="M36.401,46.263c-1.224,3.376-8.686,8.979-10.614,7.227c-1.359-1.236,1.562-11.606,4.555-14.088    c2.475-2.054,1.632-5.113,0.145-6.06c-1.562-0.993-5.249,0.619-4.395,5.09c0.744,3.89-3.344,14.035-6.337,13.598    c-2.367-0.347-4.569-6.19-4.527-10.951c0.033-3.627-1.894-4.851-3.604-4.211c-2.226,0.833-2.775,3.549,0.101,5.89    c2.452,1.996,3.854,9.006,2.338,10.104c-1.462,1.062-4.459-0.369-6.79-3.318c-2.48-3.139-4.934-4.838-6.497-2.99    c-1.752,2.068-0.586,4.94,3.94,4.94c3.069,0,5.915,3.453,5.66,4.87c-0.645,3.583,0.154,11.111,1.498,12.45    c1.752,1.752,6.278-2.774,12.628-1.822c3.907,0.583,3.179-3.048,4.175-7.525c0.86-3.862,5.416-8.36,9.588-9.108    c3.026-0.546,3.759-2.826,3.011-4.341C40.223,43.877,37.277,43.843,36.401,46.263z" />
	</g>
</g>
</symbol>
<symbol id="frog4" viewBox="0 0 24 24"><path fill-rule="evenodd" clip-rule="evenodd" d="M4 5.5C4 4.11929 5.11929 3 6.5 3C7.88071 3 9 4.11929 9 5.5C9 5.64121 8.98839 5.77926 8.96614 5.91338C8.57652 5.9959 8.19507 6.09406 7.82323 6.20708C7.93603 5.99641 8 5.75568 8 5.5C8 4.67157 7.32843 4 6.5 4C5.67157 4 5 4.67157 5 5.5C5 6.15397 5.4185 6.71018 6.00229 6.91545C5.64446 7.08824 5.30044 7.27643 4.97199 7.47905C4.37972 7.02107 4 6.30423 4 5.5ZM11 5.5C11 5.54458 10.9993 5.58902 10.9981 5.63331C11.3282 5.61126 11.6624 5.60001 12 5.60001C12.3376 5.60001 12.6718 5.61126 13.0019 5.63331C13.0007 5.58902 13 5.54458 13 5.5C13 3.01472 15.0147 1 17.5 1C19.9853 1 22 3.01472 22 5.5C22 6.76079 21.4815 7.89949 20.6476 8.71577C22.0857 10.0765 23 11.8302 23 13.8C23 16.1914 21.6519 18.2652 19.6554 19.7027C17.6574 21.1413 14.9476 22 12 22C9.05242 22 6.34263 21.1413 4.34463 19.7027C2.34811 18.2652 1 16.1914 1 13.8C1 11.8302 1.9143 10.0765 3.35241 8.71577C2.51852 7.89949 2 6.76079 2 5.5C2 3.01472 4.01472 1 6.5 1C8.98528 1 11 3.01472 11 5.5ZM19.028 7.47905C18.6996 7.27643 18.3555 7.08824 17.9977 6.91545C18.5815 6.71018 19 6.15397 19 5.5C19 4.67157 18.3284 4 17.5 4C16.6716 4 16 4.67157 16 5.5C16 5.75568 16.064 5.99641 16.1768 6.20708C15.8049 6.09406 15.4235 5.9959 15.0339 5.91338C15.0116 5.77926 15 5.64121 15 5.5C15 4.11929 16.1193 3 17.5 3C18.8807 3 20 4.11929 20 5.5C20 6.30423 19.6203 7.02107 19.028 7.47905ZM9.92062 7.76835C10.5873 7.65839 11.2834 7.60001 12 7.60001C12.7166 7.60001 13.4127 7.65839 14.0794 7.76835C15.7753 8.04806 17.2686 8.65912 18.4271 9.47783C20.0875 10.6511 21 12.1959 21 13.8C21 15.385 20.1095 16.9112 18.4868 18.0796C16.8655 19.247 14.5753 20 12 20C9.42473 20 7.13452 19.247 5.51324 18.0796C3.89047 16.9112 3 15.385 3 13.8C3 12.1959 3.91254 10.6511 5.57287 9.47783C6.73144 8.65912 8.22473 8.04806 9.92062 7.76835ZM8.94135 12.6625C8.75864 12.1522 8.2006 11.8791 7.6838 12.0513C7.15986 12.226 6.8767 12.7923 7.05134 13.3163C7.27667 13.8797 7.63782 14.3638 8.09924 14.7593C8.8797 15.4282 10.1164 16 12 16C13.8836 16 15.1204 15.4282 15.9008 14.7593C16.3524 14.3722 16.7437 13.88 16.9487 13.3163C17.1234 12.7923 16.8402 12.226 16.3163 12.0513C15.7994 11.8791 15.2414 12.1522 15.0587 12.6625C15.0461 12.6925 14.9273 12.9596 14.5992 13.2408C14.213 13.5718 13.4498 14 12 14C10.5503 14 9.78703 13.5718 9.40082 13.2408C9.07277 12.9596 8.95391 12.6925 8.94135 12.6625Z" fill="#000000" />
</symbol>
<symbol id="frog5" viewBox="0 0 512 512"><style type="text/css">
	.st0{fill:#000000;}
</style>
<g>
	<path class="st0" d="M492.894,249.818c-10.459-21.691-24.912-42.522-42.102-61.818c9.023-15.308,14.34-33.157,14.336-52.218   C465.119,78.675,418.853,32.409,361.756,32.4c-52.497,0.009-95.727,39.139-102.389,89.813H256h-7.698   C241.64,71.539,198.41,32.409,145.922,32.4C88.816,32.409,42.551,78.675,42.541,135.781c-0.01,20.254,5.938,39.198,16.056,55.17   c-16.427,18.944-30.229,39.276-40.225,60.41C6.75,275.966,0.01,301.586,0,326.845c-0.02,20.713,4.624,41.212,14.776,59.921   c15.22,28.162,42.555,51.661,82.174,67.682c39.692,16.07,91.862,25.132,159.051,25.151c89.545-0.059,152.565-16.05,194.578-43.558   c20.953-13.753,36.515-30.547,46.647-49.276c10.152-18.709,14.789-39.208,14.775-59.921   C511.99,301.048,504.971,274.89,492.894,249.818z M470.822,372.465c-11.412,21.006-32.248,39.98-67.062,54.154   c-34.746,14.126-83.274,22.972-147.76,22.952c-86.026,0.049-143.499-15.786-178.088-38.622   c-17.346-11.427-29.11-24.438-36.734-38.484c-7.595-14.046-11.135-29.296-11.149-45.62c-0.015-19.844,5.381-41.281,15.488-62.649   c10.093-21.358,24.868-42.6,43.109-61.984l9.062-9.628l-8.407-10.206c-10.459-12.708-16.7-28.856-16.71-46.597   c0.01-20.313,8.187-38.553,21.481-51.867c13.323-13.304,31.564-21.476,51.871-21.485c20.298,0.009,38.538,8.181,51.862,21.485   c13.25,13.275,21.407,31.437,21.471,51.671l-0.044,0.929l-0.743,15.728H256h33.318l-0.904-16.696   c0.073-20.215,8.231-38.367,21.471-51.632c13.323-13.304,31.564-21.476,51.871-21.485c20.298,0.009,38.538,8.181,51.862,21.485   c13.294,13.314,21.471,31.554,21.481,51.867c-0.01,16.754-5.646,32.062-15.138,44.467l-7.849,10.244l8.959,9.306   c18.914,19.618,34.266,41.251,44.769,63.059c10.523,21.808,16.144,43.724,16.13,63.988   C481.956,343.169,478.418,358.419,470.822,372.465z" />
	<path class="st0" d="M145.922,159.974c13.343,0,24.188-10.85,24.188-24.193c0-13.343-10.845-24.204-24.188-24.204   c-13.338,0-24.198,10.861-24.198,24.204C121.724,149.124,132.584,159.974,145.922,159.974z" />
	<path class="st0" d="M361.756,159.974c13.343,0,24.188-10.85,24.188-24.193c0-13.343-10.845-24.204-24.188-24.204   c-13.338,0-24.198,10.861-24.198,24.204C337.558,149.124,348.418,159.974,361.756,159.974z" />
	<path class="st0" d="M409.254,317.343h-282.93c-5.66,0-10.235,4.576-10.235,10.235c0,5.65,4.576,10.235,10.235,10.235h282.93   c5.66,0,10.235-4.584,10.235-10.235C419.488,321.918,414.914,317.343,409.254,317.343z" />
	<circle class="st0" cx="204.065" cy="261.684" r="8.758" />
	<circle class="st0" cx="309.166" cy="261.684" r="8.758" />
</g>
</symbol>
</defs>
<g transform="rotate(-12 800.0 800.0)">
<use href="#frog1" x="-600" y="-600" width="80" height="80" /><use href="#frog2" x="-490" y="-600" width="80" height="80" /><use href="#frog3" x="-380" y="-600" width="80" height="80" /><use href="#frog4" x="-270" y="-600" width="80" height="80" /><use href="#frog5" x="-160" y="-600" width="80" height="80" /><use href="#frog1" x="-50" y="-600" width="80" height="80" /><use href="#frog2" x="60" y="-600" width="80" height="80" /><use href="#frog3" x="170" y="-600" width="80" height="80" /><use href="#frog4" x="280" y="-600" width="80" height="80" /><use href="#frog5" x="390" y="-600" width="80" height="80" /><use href="#frog1" x="500" y="-600" width="80" height="80" /><use href="#frog2" x="610" y="-600" width="80" height="80" /><use href="#frog3" x="720" y="-600" width="80" height="80" /><use href="#frog4" x="830" y="-600" width="80" height="80" /><use href="#frog5" x="940" y="-600" width="80" height="80" /><use href="#frog1" x="1050" y="-600" width="80" height="80" /><use href="#frog2" x="1160" y="-600" width="80" height="80" /><use href="#frog3" x="1270" y="-600" width="80" height="80" /><use href="#frog4" x="1380" y="-600" width="80" height="80" /><use href="#frog5" x="1490" y="-600" width="80" height="80" /><use href="#frog1" x="1600" y="-600" width="80" height="80" /><use href="#frog2" x="1710" y="-600" width="80" height="80" /><use href="#frog3" x="1820" y="-600" width="80" height="80" /><use href="#frog4" x="1930" y="-600" width="80" height="80" /><use href="#frog5" x="2040" y="-600" width="80" height="80" /><use href="#frog1" x="2150" y="-600" width="80" height="80" /><use href="#frog2" x="-545.0" y="-490" width="80" height="80" /><use href="#frog3" x="-435.0" y="-490" width="80" height="80" /><use href="#frog4" x="-325.0" y="-490" width="80" height="80" /><use href="#frog5" x="-215.0" y="-490" width="80" height="80" /><use href="#frog1" x="-105.0" y="-490" width="80" height="80" /><use href="#frog2" x="5.0" y="-490" width="80" height="80" /><use href="#frog3" x="115.0" y="-490" width="80" height="80" /><use href="#frog4" x="225.0" y="-490" width="80" height="80" /><use href="#frog5" x="335.0" y="-490" width="80" height="80" /><use href="#frog1" x="445.0" y="-490" width="80" height="80" /><use href="#frog2" x="555.0" y="-490" width="80" height="80" /><use href="#frog3" x="665.0" y="-490" width="80" height="80" /><use href="#frog4" x="775.0" y="-490" width="80" height="80" /><use href="#frog5" x="885.0" y="-490" width="80" height="80" /><use href="#frog1" x="995.0" y="-490" width="80" height="80" /><use href="#frog2" x="1105.0" y="-490" width="80" height="80" /><use href="#frog3" x="1215.0" y="-490" width="80" height="80" /><use href="#frog4" x="1325.0" y="-490" width="80" height="80" /><use href="#frog5" x="1435.0" y="-490" width="80" height="80" /><use href="#frog1" x="1545.0" y="-490" width="80" height="80" /><use href="#frog2" x="1655.0" y="-490" width="80" height="80" /><use href="#frog3" x="1765.0" y="-490" width="80" height="80" /><use href="#frog4" x="1875.0" y="-490" width="80" height="80" /><use href="#frog5" x="1985.0" y="-490" width="80" height="80" /><use href="#frog1" x="2095.0" y="-490" width="80" height="80" /><use href="#frog3" x="-600" y="-380" width="80" height="80" /><use href="#frog4" x="-490" y="-380" width="80" height="80" /><use href="#frog5" x="-380" y="-380" width="80" height="80" /><use href="#frog1" x="-270" y="-380" width="80" height="80" /><use href="#frog2" x="-160" y="-380" width="80" height="80" /><use href="#frog3" x="-50" y="-380" width="80" height="80" /><use href="#frog4" x="60" y="-380" width="80" height="80" /><use href="#frog5" x="170" y="-380" width="80" height="80" /><use href="#frog1" x="280" y="-380" width="80" height="80" /><use href="#frog2" x="390" y="-380" width="80" height="80" /><use href="#frog3" x="500" y="-380" width="80" height="80" /><use href="#frog4" x="610" y="-380" width="80" height="80" /><use href="#frog5" x="720" y="-380" width="80" height="80" /><use href="#frog1" x="830" y="-380" width="80" height="80" /><use href="#frog2" x="940" y="-380" width="80" height="80" /><use href="#frog3" x="1050" y="-380" width="80" height="80" /><use href="#frog4" x="1160" y="-380" width="80" height="80" /><use href="#frog5" x="1270" y="-380" width="80" height="80" /><use href="#frog1" x="1380" y="-380" width="80" height="80" /><use href="#frog2" x="1490" y="-380" width="80" height="80" /><use href="#frog3" x="1600" y="-380" width="80" height="80" /><use href="#frog4" x="1710" y="-380" width="80" height="80" /><use href="#frog5" x="1820" y="-380" width="80" height="80" /><use href="#frog1" x="1930" y="-380" width="80" height="80" /><use href="#frog2" x="2040" y="-380" width="80" height="80" /><use href="#frog3" x="2150" y="-380" width="80" height="80" /><use href="#frog4" x="-545.0" y="-270" width="80" height="80" /><use href="#frog5" x="-435.0" y="-270" width="80" height="80" /><use href="#frog1" x="-325.0" y="-270" width="80" height="80" /><use href="#frog2" x="-215.0" y="-270" width="80" height="80" /><use href="#frog3" x="-105.0" y="-270" width="80" height="80" /><use href="#frog4" x="5.0" y="-270" width="80" height="80" /><use href="#frog5" x="115.0" y="-270" width="80" height="80" /><use href="#frog1" x="225.0" y="-270" width="80" height="80" /><use href="#frog2" x="335.0" y="-270" width="80" height="80" /><use href="#frog3" x="445.0" y="-270" width="80" height="80" /><use href="#frog4" x="555.0" y="-270" width="80" height="80" /><use href="#frog5" x="665.0" y="-270" width="80" height="80" /><use href="#frog1" x="775.0" y="-270" width="80" height="80" /><use href="#frog2" x="885.0" y="-270" width="80" height="80" /><use href="#frog3" x="995.0" y="-270" width="80" height="80" /><use href="#frog4" x="1105.0" y="-270" width="80" height="80" /><use href="#frog5" x="1215.0" y="-270" width="80" height="80" /><use href="#frog1" x="1325.0" y="-270" width="80" height="80" /><use href="#frog2" x="1435.0" y="-270" width="80" height="80" /><use href="#frog3" x="1545.0" y="-270" width="80" height="80" /><use href="#frog4" x="1655.0" y="-270" width="80" height="80" /><use href="#frog5" x="1765.0" y="-270" width="80" height="80" /><use href="#frog1" x="1875.0" y="-270" width="80" height="80" /><use href="#frog2" x="1985.0" y="-270" width="80" height="80" /><use href="#frog3" x="2095.0" y="-270" width="80" height="80" /><use href="#frog5" x="-600" y="-160" width="80" height="80" /><use href="#frog1" x="-490" y="-160" width="80" height="80" /><use href="#frog2" x="-380" y="-160" width="80" height="80" /><use href="#frog3" x="-270" y="-160" width="80" height="80" /><use href="#frog4" x="-160" y="-160" width="80" height="80" /><use href="#frog5" x="-50" y="-160" width="80" height="80" /><use href="#frog1" x="60" y="-160" width="80" height="80" /><use href="#frog2" x="170" y="-160" width="80" height="80" /><use href="#frog3" x="280" y="-160" width="80" height="80" /><use href="#frog4" x="390" y="-160" width="80" height="80" /><use href="#frog5" x="500" y="-160" width="80" height="80" /><use href="#frog1" x="610" y="-160" width="80" height="80" /><use href="#frog2" x="720" y="-160" width="80" height="80" /><use href="#frog3" x="830" y="-160" width="80" height="80" /><use href="#frog4" x="940" y="-160" width="80" height="80" /><use href="#frog5" x="1050" y="-160" width="80" height="80" /><use href="#frog1" x="1160" y="-160" width="80" height="80" /><use href="#frog2" x="1270" y="-160" width="80" height="80" /><use href="#frog3" x="1380" y="-160" width="80" height="80" /><use href="#frog4" x="1490" y="-160" width="80" height="80" /><use href="#frog5" x="1600" y="-160" width="80" height="80" /><use href="#frog1" x="1710" y="-160" width="80" height="80" /><use href="#frog2" x="1820" y="-160" width="80" height="80" /><use href="#frog3" x="1930" y="-160" width="80" height="80" /><use href="#frog4" x="2040" y="-160" width="80" height="80" /><use href="#frog5" x="2150" y="-160" width="80" height="80" /><use href="#frog1" x="-545.0" y="-50" width="80" height="80" /><use href="#frog2" x="-435.0" y="-50" width="80" height="80" /><use href="#frog3" x="-325.0" y="-50" width="80" height="80" /><use href="#frog4" x="-215.0" y="-50" width="80" height="80" /><use href="#frog5" x="-105.0" y="-50" width="80" height="80" /><use href="#frog1" x="5.0" y="-50" width="80" height="80" /><use href="#frog2" x="115.0" y="-50" width="80" height="80" /><use href="#frog3" x="225.0" y="-50" width="80" height="80" /><use href="#frog4" x="335.0" y="-50" width="80" height="80" /><use href="#frog5" x="445.0" y="-50" width="80" height="80" /><use href="#frog1" x="555.0" y="-50" width="80" height="80" /><use href="#frog2" x="665.0" y="-50" width="80" height="80" /><use href="#frog3" x="775.0" y="-50" width="80" height="80" /><use href="#frog4" x="885.0" y="-50" width="80" height="80" /><use href="#frog5" x="995.0" y="-50" width="80" height="80" /><use href="#frog1" x="1105.0" y="-50" width="80" height="80" /><use href="#frog2" x="1215.0" y="-50" width="80" height="80" /><use href="#frog3" x="1325.0" y="-50" width="80" height="80" /><use href="#frog4" x="1435.0" y="-50" width="80" height="80" /><use href="#frog5" x="1545.0" y="-50" width="80" height="80" /><use href="#frog1" x="1655.0" y="-50" width="80" height="80" /><use href="#frog2" x="1765.0" y="-50" width="80" height="80" /><use href="#frog3" x="1875.0" y="-50" width="80" height="80" /><use href="#frog4" x="1985.0" y="-50" width="80" height="80" /><use href="#frog5" x="2095.0" y="-50" width="80" height="80" /><use href="#frog2" x="-600" y="60" width="80" height="80" /><use href="#frog3" x="-490" y="60" width="80" height="80" /><use href="#frog4" x="-380" y="60" width="80" height="80" /><use href="#frog5" x="-270" y="60" width="80" height="80" /><use href="#frog1" x="-160" y="60" width="80" height="80" /><use href="#frog2" x="-50" y="60" width="80" height="80" /><use href="#frog3" x="60" y="60" width="80" height="80" /><use href="#frog4" x="170" y="60" width="80" height="80" /><use href="#frog5" x="280" y="60" width="80" height="80" /><use href="#frog1" x="390" y="60" width="80" height="80" /><use href="#frog2" x="500" y="60" width="80" height="80" /><use href="#frog3" x="610" y="60" width="80" height="80" /><use href="#frog4" x="720" y="60" width="80" height="80" /><use href="#frog5" x="830" y="60" width="80" height="80" /><use href="#frog1" x="940" y="60" width="80" height="80" /><use href="#frog2" x="1050" y="60" width="80" height="80" /><use href="#frog3" x="1160" y="60" width="80" height="80" /><use href="#frog4" x="1270" y="60" width="80" height="80" /><use href="#frog5" x="1380" y="60" width="80" height="80" /><use href="#frog1" x="1490" y="60" width="80" height="80" /><use href="#frog2" x="1600" y="60" width="80" height="80" /><use href="#frog3" x="1710" y="60" width="80" height="80" /><use href="#frog4" x="1820" y="60" width="80" height="80" /><use href="#frog5" x="1930" y="60" width="80" height="80" /><use href="#frog1" x="2040" y="60" width="80" height="80" /><use href="#frog2" x="2150" y="60" width="80" height="80" /><use href="#frog3" x="-545.0" y="170" width="80" height="80" /><use href="#frog4" x="-435.0" y="170" width="80" height="80" /><use href="#frog5" x="-325.0" y="170" width="80" height="80" /><use href="#frog1" x="-215.0" y="170" width="80" height="80" /><use href="#frog2" x="-105.0" y="170" width="80" height="80" /><use href="#frog3" x="5.0" y="170" width="80" height="80" /><use href="#frog4" x="115.0" y="170" width="80" height="80" /><use href="#frog5" x="225.0" y="170" width="80" height="80" /><use href="#frog1" x="335.0" y="170" width="80" height="80" /><use href="#frog2" x="445.0" y="170" width="80" height="80" /><use href="#frog3" x="555.0" y="170" width="80" height="80" /><use href="#frog4" x="665.0" y="170" width="80" height="80" /><use href="#frog5" x="775.0" y="170" width="80" height="80" /><use href="#frog1" x="885.0" y="170" width="80" height="80" /><use href="#frog2" x="995.0" y="170" width="80" height="80" /><use href="#frog3" x="1105.0" y="170" width="80" height="80" /><use href="#frog4" x="1215.0" y="170" width="80" height="80" /><use href="#frog5" x="1325.0" y="170" width="80" height="80" /><use href="#frog1" x="1435.0" y="170" width="80" height="80" /><use href="#frog2" x="1545.0" y="170" width="80" height="80" /><use href="#frog3" x="1655.0" y="170" width="80" height="80" /><use href="#frog4" x="1765.0" y="170" width="80" height="80" /><use href="#frog5" x="1875.0" y="170" width="80" height="80" /><use href="#frog1" x="1985.0" y="170" width="80" height="80" /><use href="#frog2" x="2095.0" y="170" width="80" height="80" /><use href="#frog4" x="-600" y="280" width="80" height="80" /><use href="#frog5" x="-490" y="280" width="80" height="80" /><use href="#frog1" x="-380" y="280" width="80" height="80" /><use href="#frog2" x="-270" y="280" width="80" height="80" /><use href="#frog3" x="-160" y="280" width="80" height="80" /><use href="#frog4" x="-50" y="280" width="80" height="80" /><use href="#frog5" x="60" y="280" width="80" height="80" /><use href="#frog1" x="170" y="280" width="80" height="80" /><use href="#frog2" x="280" y="280" width="80" height="80" /><use href="#frog3" x="390" y="280" width="80" height="80" /><use href="#frog4" x="500" y="280" width="80" height="80" /><use href="#frog5" x="610" y="280" width="80" height="80" /><use href="#frog1" x="720" y="280" width="80" height="80" /><use href="#frog2" x="830" y="280" width="80" height="80" /><use href="#frog3" x="940" y="280" width="80" height="80" /><use href="#frog4" x="1050" y="280" width="80" height="80" /><use href="#frog5" x="1160" y="280" width="80" height="80" /><use href="#frog1" x="1270" y="280" width="80" height="80" /><use href="#frog2" x="1380" y="280" width="80" height="80" /><use href="#frog3" x="1490" y="280" width="80" height="80" /><use href="#frog4" x="1600" y="280" width="80" height="80" /><use href="#frog5" x="1710" y="280" width="80" height="80" /><use href="#frog1" x="1820" y="280" width="80" height="80" /><use href="#frog2" x="1930" y="280" width="80" height="80" /><use href="#frog3" x="2040" y="280" width="80" height="80" /><use href="#frog4" x="2150" y="280" width="80" height="80" /><use href="#frog5" x="-545.0" y="390" width="80" height="80" /><use href="#frog1" x="-435.0" y="390" width="80" height="80" /><use href="#frog2" x="-325.0" y="390" width="80" height="80" /><use href="#frog3" x="-215.0" y="390" width="80" height="80" /><use href="#frog4" x="-105.0" y="390" width="80" height="80" /><use href="#frog5" x="5.0" y="390" width="80" height="80" /><use href="#frog1" x="115.0" y="390" width="80" height="80" /><use href="#frog2" x="225.0" y="390" width="80" height="80" /><use href="#frog3" x="335.0" y="390" width="80" height="80" /><use href="#frog4" x="445.0" y="390" width="80" height="80" /><use href="#frog5" x="555.0" y="390" width="80" height="80" /><use href="#frog1" x="665.0" y="390" width="80" height="80" /><use href="#frog2" x="775.0" y="390" width="80" height="80" /><use href="#frog3" x="885.0" y="390" width="80" height="80" /><use href="#frog4" x="995.0" y="390" width="80" height="80" /><use href="#frog5" x="1105.0" y="390" width="80" height="80" /><use href="#frog1" x="1215.0" y="390" width="80" height="80" /><use href="#frog2" x="1325.0" y="390" width="80" height="80" /><use href="#frog3" x="1435.0" y="390" width="80" height="80" /><use href="#frog4" x="1545.0" y="390" width="80" height="80" /><use href="#frog5" x="1655.0" y="390" width="80" height="80" /><use href="#frog1" x="1765.0" y="390" width="80" height="80" /><use href="#frog2" x="1875.0" y="390" width="80" height="80" /><use href="#frog3" x="1985.0" y="390" width="80" height="80" /><use href="#frog4" x="2095.0" y="390" width="80" height="80" /><use href="#frog1" x="-600" y="500" width="80" height="80" /><use href="#frog2" x="-490" y="500" width="80" height="80" /><use href="#frog3" x="-380" y="500" width="80" height="80" /><use href="#frog4" x="-270" y="500" width="80" height="80" /><use href="#frog5" x="-160" y="500" width="80" height="80" /><use href="#frog1" x="-50" y="500" width="80" height="80" /><use href="#frog2" x="60" y="500" width="80" height="80" /><use href="#frog3" x="170" y="500" width="80" height="80" /><use href="#frog4" x="280" y="500" width="80" height="80" /><use href="#frog5" x="390" y="500" width="80" height="80" /><use href="#frog1" x="500" y="500" width="80" height="80" /><use href="#frog2" x="610" y="500" width="80" height="80" /><use href="#frog3" x="720" y="500" width="80" height="80" /><use href="#frog4" x="830" y="500" width="80" height="80" /><use href="#frog5" x="940" y="500" width="80" height="80" /><use href="#frog1" x="1050" y="500" width="80" height="80" /><use href="#frog2" x="1160" y="500" width="80" height="80" /><use href="#frog3" x="1270" y="500" width="80" height="80" /><use href="#frog4" x="1380" y="500" width="80" height="80" /><use href="#frog5" x="1490" y="500" width="80" height="80" /><use href="#frog1" x="1600" y="500" width="80" height="80" /><use href="#frog2" x="1710" y="500" width="80" height="80" /><use href="#frog3" x="1820" y="500" width="80" height="80" /><use href="#frog4" x="1930" y="500" width="80" height="80" /><use href="#frog5" x="2040" y="500" width="80" height="80" /><use href="#frog1" x="2150" y="500" width="80" height="80" /><use href="#frog2" x="-545.0" y="610" width="80" height="80" /><use href="#frog3" x="-435.0" y="610" width="80" height="80" /><use href="#frog4" x="-325.0" y="610" width="80" height="80" /><use href="#frog5" x="-215.0" y="610" width="80" height="80" /><use href="#frog1" x="-105.0" y="610" width="80" height="80" /><use href="#frog2" x="5.0" y="610" width="80" height="80" /><use href="#frog3" x="115.0" y="610" width="80" height="80" /><use href="#frog4" x="225.0" y="610" width="80" height="80" /><use href="#frog5" x="335.0" y="610" width="80" height="80" /><use href="#frog1" x="445.0" y="610" width="80" height="80" /><use href="#frog2" x="555.0" y="610" width="80" height="80" /><use href="#frog3" x="665.0" y="610" width="80" height="80" /><use href="#frog4" x="775.0" y="610" width="80" height="80" /><use href="#frog5" x="885.0" y="610" width="80" height="80" /><use href="#frog1" x="995.0" y="610" width="80" height="80" /><use href="#frog2" x="1105.0" y="610" width="80" height="80" /><use href="#frog3" x="1215.0" y="610" width="80" height="80" /><use href="#frog4" x="1325.0" y="610" width="80" height="80" /><use href="#frog5" x="1435.0" y="610" width="80" height="80" /><use href="#frog1" x="1545.0" y="610" width="80" height="80" /><use href="#frog2" x="1655.0" y="610" width="80" height="80" /><use href="#frog3" x="1765.0" y="610" width="80" height="80" /><use href="#frog4" x="1875.0" y="610" width="80" height="80" /><use href="#frog5" x="1985.0" y="610" width="80" height="80" /><use href="#frog1" x="2095.0" y="610" width="80" height="80" /><use href="#frog3" x="-600" y="720" width="80" height="80" /><use href="#frog4" x="-490" y="720" width="80" height="80" /><use href="#frog5" x="-380" y="720" width="80" height="80" /><use href="#frog1" x="-270" y="720" width="80" height="80" /><use href="#frog2" x="-160" y="720" width="80" height="80" /><use href="#frog3" x="-50" y="720" width="80" height="80" /><use href="#frog4" x="60" y="720" width="80" height="80" /><use href="#frog5" x="170" y="720" width="80" height="80" /><use href="#frog1" x="280" y="720" width="80" height="80" /><use href="#frog2" x="390" y="720" width="80" height="80" /><use href="#frog3" x="500" y="720" width="80" height="80" /><use href="#frog4" x="610" y="720" width="80" height="80" /><use href="#frog5" x="720" y="720" width="80" height="80" /><use href="#frog1" x="830" y="720" width="80" height="80" /><use href="#frog2" x="940" y="720" width="80" height="80" /><use href="#frog3" x="1050" y="720" width="80" height="80" /><use href="#frog4" x="1160" y="720" width="80" height="80" /><use href="#frog5" x="1270" y="720" width="80" height="80" /><use href="#frog1" x="1380" y="720" width="80" height="80" /><use href="#frog2" x="1490" y="720" width="80" height="80" /><use href="#frog3" x="1600" y="720" width="80" height="80" /><use href="#frog4" x="1710" y="720" width="80" height="80" /><use href="#frog5" x="1820" y="720" width="80" height="80" /><use href="#frog1" x="1930" y="720" width="80" height="80" /><use href="#frog2" x="2040" y="720" width="80" height="80" /><use href="#frog3" x="2150" y="720" width="80" height="80" /><use href="#frog4" x="-545.0" y="830" width="80" height="80" /><use href="#frog5" x="-435.0" y="830" width="80" height="80" /><use href="#frog1" x="-325.0" y="830" width="80" height="80" /><use href="#frog2" x="-215.0" y="830" width="80" height="80" /><use href="#frog3" x="-105.0" y="830" width="80" height="80" /><use href="#frog4" x="5.0" y="830" width="80" height="80" /><use href="#frog5" x="115.0" y="830" width="80" height="80" /><use href="#frog1" x="225.0" y="830" width="80" height="80" /><use href="#frog2" x="335.0" y="830" width="80" height="80" /><use href="#frog3" x="445.0" y="830" width="80" height="80" /><use href="#frog4" x="555.0" y="830" width="80" height="80" /><use href="#frog5" x="665.0" y="830" width="80" height="80" /><use href="#frog1" x="775.0" y="830" width="80" height="80" /><use href="#frog2" x="885.0" y="830" width="80" height="80" /><use href="#frog3" x="995.0" y="830" width="80" height="80" /><use href="#frog4" x="1105.0" y="830" width="80" height="80" /><use href="#frog5" x="1215.0" y="830" width="80" height="80" /><use href="#frog1" x="1325.0" y="830" width="80" height="80" /><use href="#frog2" x="1435.0" y="830" width="80" height="80" /><use href="#frog3" x="1545.0" y="830" width="80" height="80" /><use href="#frog4" x="1655.0" y="830" width="80" height="80" /><use href="#frog5" x="1765.0" y="830" width="80" height="80" /><use href="#frog1" x="1875.0" y="830" width="80" height="80" /><use href="#frog2" x="1985.0" y="830" width="80" height="80" /><use href="#frog3" x="2095.0" y="830" width="80" height="80" /><use href="#frog5" x="-600" y="940" width="80" height="80" /><use href="#frog1" x="-490" y="940" width="80" height="80" /><use href="#frog2" x="-380" y="940" width="80" height="80" /><use href="#frog3" x="-270" y="940" width="80" height="80" /><use href="#frog4" x="-160" y="940" width="80" height="80" /><use href="#frog5" x="-50" y="940" width="80" height="80" /><use href="#frog1" x="60" y="940" width="80" height="80" /><use href="#frog2" x="170" y="940" width="80" height="80" /><use href="#frog3" x="280" y="940" width="80" height="80" /><use href="#frog4" x="390" y="940" width="80" height="80" /><use href="#frog5" x="500" y="940" width="80" height="80" /><use href="#frog1" x="610" y="940" width="80" height="80" /><use href="#frog2" x="720" y="940" width="80" height="80" /><use href="#frog3" x="830" y="940" width="80" height="80" /><use href="#frog4" x="940" y="940" width="80" height="80" /><use href="#frog5" x="1050" y="940" width="80" height="80" /><use href="#frog1" x="1160" y="940" width="80" height="80" /><use href="#frog2" x="1270" y="940" width="80" height="80" /><use href="#frog3" x="1380" y="940" width="80" height="80" /><use href="#frog4" x="1490" y="940" width="80" height="80" /><use href="#frog5" x="1600" y="940" width="80" height="80" /><use href="#frog1" x="1710" y="940" width="80" height="80" /><use href="#frog2" x="1820" y="940" width="80" height="80" /><use href="#frog3" x="1930" y="940" width="80" height="80" /><use href="#frog4" x="2040" y="940" width="80" height="80" /><use href="#frog5" x="2150" y="940" width="80" height="80" /><use href="#frog1" x="-545.0" y="1050" width="80" height="80" /><use href="#frog2" x="-435.0" y="1050" width="80" height="80" /><use href="#frog3" x="-325.0" y="1050" width="80" height="80" /><use href="#frog4" x="-215.0" y="1050" width="80" height="80" /><use href="#frog5" x="-105.0" y="1050" width="80" height="80" /><use href="#frog1" x="5.0" y="1050" width="80" height="80" /><use href="#frog2" x="115.0" y="1050" width="80" height="80" /><use href="#frog3" x="225.0" y="1050" width="80" height="80" /><use href="#frog4" x="335.0" y="1050" width="80" height="80" /><use href="#frog5" x="445.0" y="1050" width="80" height="80" /><use href="#frog1" x="555.0" y="1050" width="80" height="80" /><use href="#frog2" x="665.0" y="1050" width="80" height="80" /><use href="#frog3" x="775.0" y="1050" width="80" height="80" /><use href="#frog4" x="885.0" y="1050" width="80" height="80" /><use href="#frog5" x="995.0" y="1050" width="80" height="80" /><use href="#frog1" x="1105.0" y="1050" width="80" height="80" /><use href="#frog2" x="1215.0" y="1050" width="80" height="80" /><use href="#frog3" x="1325.0" y="1050" width="80" height="80" /><use href="#frog4" x="1435.0" y="1050" width="80" height="80" /><use href="#frog5" x="1545.0" y="1050" width="80" height="80" /><use href="#frog1" x="1655.0" y="1050" width="80" height="80" /><use href="#frog2" x="1765.0" y="1050" width="80" height="80" /><use href="#frog3" x="1875.0" y="1050" width="80" height="80" /><use href="#frog4" x="1985.0" y="1050" width="80" height="80" /><use href="#frog5" x="2095.0" y="1050" width="80" height="80" /><use href="#frog2" x="-600" y="1160" width="80" height="80" /><use href="#frog3" x="-490" y="1160" width="80" height="80" /><use href="#frog4" x="-380" y="1160" width="80" height="80" /><use href="#frog5" x="-270" y="1160" width="80" height="80" /><use href="#frog1" x="-160" y="1160" width="80" height="80" /><use href="#frog2" x="-50" y="1160" width="80" height="80" /><use href="#frog3" x="60" y="1160" width="80" height="80" /><use href="#frog4" x="170" y="1160" width="80" height="80" /><use href="#frog5" x="280" y="1160" width="80" height="80" /><use href="#frog1" x="390" y="1160" width="80" height="80" /><use href="#frog2" x="500" y="1160" width="80" height="80" /><use href="#frog3" x="610" y="1160" width="80" height="80" /><use href="#frog4" x="720" y="1160" width="80" height="80" /><use href="#frog5" x="830" y="1160" width="80" height="80" /><use href="#frog1" x="940" y="1160" width="80" height="80" /><use href="#frog2" x="1050" y="1160" width="80" height="80" /><use href="#frog3" x="1160" y="1160" width="80" height="80" /><use href="#frog4" x="1270" y="1160" width="80" height="80" /><use href="#frog5" x="1380" y="1160" width="80" height="80" /><use href="#frog1" x="1490" y="1160" width="80" height="80" /><use href="#frog2" x="1600" y="1160" width="80" height="80" /><use href="#frog3" x="1710" y="1160" width="80" height="80" /><use href="#frog4" x="1820" y="1160" width="80" height="80" /><use href="#frog5" x="1930" y="1160" width="80" height="80" /><use href="#frog1" x="2040" y="1160" width="80" height="80" /><use href="#frog2" x="2150" y="1160" width="80" height="80" /><use href="#frog3" x="-545.0" y="1270" width="80" height="80" /><use href="#frog4" x="-435.0" y="1270" width="80" height="80" /><use href="#frog5" x="-325.0" y="1270" width="80" height="80" /><use href="#frog1" x="-215.0" y="1270" width="80" height="80" /><use href="#frog2" x="-105.0" y="1270" width="80" height="80" /><use href="#frog3" x="5.0" y="1270" width="80" height="80" /><use href="#frog4" x="115.0" y="1270" width="80" height="80" /><use href="#frog5" x="225.0" y="1270" width="80" height="80" /><use href="#frog1" x="335.0" y="1270" width="80" height="80" /><use href="#frog2" x="445.0" y="1270" width="80" height="80" /><use href="#frog3" x="555.0" y="1270" width="80" height="80" /><use href="#frog4" x="665.0" y="1270" width="80" height="80" /><use href="#frog5" x="775.0" y="1270" width="80" height="80" /><use href="#frog1" x="885.0" y="1270" width="80" height="80" /><use href="#frog2" x="995.0" y="1270" width="80" height="80" /><use href="#frog3" x="1105.0" y="1270" width="80" height="80" /><use href="#frog4" x="1215.0" y="1270" width="80" height="80" /><use href="#frog5" x="1325.0" y="1270" width="80" height="80" /><use href="#frog1" x="1435.0" y="1270" width="80" height="80" /><use href="#frog2" x="1545.0" y="1270" width="80" height="80" /><use href="#frog3" x="1655.0" y="1270" width="80" height="80" /><use href="#frog4" x="1765.0" y="1270" width="80" height="80" /><use href="#frog5" x="1875.0" y="1270" width="80" height="80" /><use href="#frog1" x="1985.0" y="1270" width="80" height="80" /><use href="#frog2" x="2095.0" y="1270" width="80" height="80" /><use href="#frog4" x="-600" y="1380" width="80" height="80" /><use href="#frog5" x="-490" y="1380" width="80" height="80" /><use href="#frog1" x="-380" y="1380" width="80" height="80" /><use href="#frog2" x="-270" y="1380" width="80" height="80" /><use href="#frog3" x="-160" y="1380" width="80" height="80" /><use href="#frog4" x="-50" y="1380" width="80" height="80" /><use href="#frog5" x="60" y="1380" width="80" height="80" /><use href="#frog1" x="170" y="1380" width="80" height="80" /><use href="#frog2" x="280" y="1380" width="80" height="80" /><use href="#frog3" x="390" y="1380" width="80" height="80" /><use href="#frog4" x="500" y="1380" width="80" height="80" /><use href="#frog5" x="610" y="1380" width="80" height="80" /><use href="#frog1" x="720" y="1380" width="80" height="80" /><use href="#frog2" x="830" y="1380" width="80" height="80" /><use href="#frog3" x="940" y="1380" width="80" height="80" /><use href="#frog4" x="1050" y="1380" width="80" height="80" /><use href="#frog5" x="1160" y="1380" width="80" height="80" /><use href="#frog1" x="1270" y="1380" width="80" height="80" /><use href="#frog2" x="1380" y="1380" width="80" height="80" /><use href="#frog3" x="1490" y="1380" width="80" height="80" /><use href="#frog4" x="1600" y="1380" width="80" height="80" /><use href="#frog5" x="1710" y="1380" width="80" height="80" /><use href="#frog1" x="1820" y="1380" width="80" height="80" /><use href="#frog2" x="1930" y="1380" width="80" height="80" /><use href="#frog3" x="2040" y="1380" width="80" height="80" /><use href="#frog4" x="2150" y="1380" width="80" height="80" /><use href="#frog5" x="-545.0" y="1490" width="80" height="80" /><use href="#frog1" x="-435.0" y="1490" width="80" height="80" /><use href="#frog2" x="-325.0" y="1490" width="80" height="80" /><use href="#frog3" x="-215.0" y="1490" width="80" height="80" /><use href="#frog4" x="-105.0" y="1490" width="80" height="80" /><use href="#frog5" x="5.0" y="1490" width="80" height="80" /><use href="#frog1" x="115.0" y="1490" width="80" height="80" /><use href="#frog2" x="225.0" y="1490" width="80" height="80" /><use href="#frog3" x="335.0" y="1490" width="80" height="80" /><use href="#frog4" x="445.0" y="1490" width="80" height="80" /><use href="#frog5" x="555.0" y="1490" width="80" height="80" /><use href="#frog1" x="665.0" y="1490" width="80" height="80" /><use href="#frog2" x="775.0" y="1490" width="80" height="80" /><use href="#frog3" x="885.0" y="1490" width="80" height="80" /><use href="#frog4" x="995.0" y="1490" width="80" height="80" /><use href="#frog5" x="1105.0" y="1490" width="80" height="80" /><use href="#frog1" x="1215.0" y="1490" width="80" height="80" /><use href="#frog2" x="1325.0" y="1490" width="80" height="80" /><use href="#frog3" x="1435.0" y="1490" width="80" height="80" /><use href="#frog4" x="1545.0" y="1490" width="80" height="80" /><use href="#frog5" x="1655.0" y="1490" width="80" height="80" /><use href="#frog1" x="1765.0" y="1490" width="80" height="80" /><use href="#frog2" x="1875.0" y="1490" width="80" height="80" /><use href="#frog3" x="1985.0" y="1490" width="80" height="80" /><use href="#frog4" x="2095.0" y="1490" width="80" height="80" /><use href="#frog1" x="-600" y="1600" width="80" height="80" /><use href="#frog2" x="-490" y="1600" width="80" height="80" /><use href="#frog3" x="-380" y="1600" width="80" height="80" /><use href="#frog4" x="-270" y="1600" width="80" height="80" /><use href="#frog5" x="-160" y="1600" width="80" height="80" /><use href="#frog1" x="-50" y="1600" width="80" height="80" /><use href="#frog2" x="60" y="1600" width="80" height="80" /><use href="#frog3" x="170" y="1600" width="80" height="80" /><use href="#frog4" x="280" y="1600" width="80" height="80" /><use href="#frog5" x="390" y="1600" width="80" height="80" /><use href="#frog1" x="500" y="1600" width="80" height="80" /><use href="#frog2" x="610" y="1600" width="80" height="80" /><use href="#frog3" x="720" y="1600" width="80" height="80" /><use href="#frog4" x="830" y="1600" width="80" height="80" /><use href="#frog5" x="940" y="1600" width="80" height="80" /><use href="#frog1" x="1050" y="1600" width="80" height="80" /><use href="#frog2" x="1160" y="1600" width="80" height="80" /><use href="#frog3" x="1270" y="1600" width="80" height="80" /><use href="#frog4" x="1380" y="1600" width="80" height="80" /><use href="#frog5" x="1490" y="1600" width="80" height="80" /><use href="#frog1" x="1600" y="1600" width="80" height="80" /><use href="#frog2" x="1710" y="1600" width="80" height="80" /><use href="#frog3" x="1820" y="1600" width="80" height="80" /><use href="#frog4" x="1930" y="1600" width="80" height="80" /><use href="#frog5" x="2040" y="1600" width="80" height="80" /><use href="#frog1" x="2150" y="1600" width="80" height="80" /><use href="#frog2" x="-545.0" y="1710" width="80" height="80" /><use href="#frog3" x="-435.0" y="1710" width="80" height="80" /><use href="#frog4" x="-325.0" y="1710" width="80" height="80" /><use href="#frog5" x="-215.0" y="1710" width="80" height="80" /><use href="#frog1" x="-105.0" y="1710" width="80" height="80" /><use href="#frog2" x="5.0" y="1710" width="80" height="80" /><use href="#frog3" x="115.0" y="1710" width="80" height="80" /><use href="#frog4" x="225.0" y="1710" width="80" height="80" /><use href="#frog5" x="335.0" y="1710" width="80" height="80" /><use href="#frog1" x="445.0" y="1710" width="80" height="80" /><use href="#frog2" x="555.0" y="1710" width="80" height="80" /><use href="#frog3" x="665.0" y="1710" width="80" height="80" /><use href="#frog4" x="775.0" y="1710" width="80" height="80" /><use href="#frog5" x="885.0" y="1710" width="80" height="80" /><use href="#frog1" x="995.0" y="1710" width="80" height="80" /><use href="#frog2" x="1105.0" y="1710" width="80" height="80" /><use href="#frog3" x="1215.0" y="1710" width="80" height="80" /><use href="#frog4" x="1325.0" y="1710" width="80" height="80" /><use href="#frog5" x="1435.0" y="1710" width="80" height="80" /><use href="#frog1" x="1545.0" y="1710" width="80" height="80" /><use href="#frog2" x="1655.0" y="1710" width="80" height="80" /><use href="#frog3" x="1765.0" y="1710" width="80" height="80" /><use href="#frog4" x="1875.0" y="1710" width="80" height="80" /><use href="#frog5" x="1985.0" y="1710" width="80" height="80" /><use href="#frog1" x="2095.0" y="1710" width="80" height="80" /><use href="#frog3" x="-600" y="1820" width="80" height="80" /><use href="#frog4" x="-490" y="1820" width="80" height="80" /><use href="#frog5" x="-380" y="1820" width="80" height="80" /><use href="#frog1" x="-270" y="1820" width="80" height="80" /><use href="#frog2" x="-160" y="1820" width="80" height="80" /><use href="#frog3" x="-50" y="1820" width="80" height="80" /><use href="#frog4" x="60" y="1820" width="80" height="80" /><use href="#frog5" x="170" y="1820" width="80" height="80" /><use href="#frog1" x="280" y="1820" width="80" height="80" /><use href="#frog2" x="390" y="1820" width="80" height="80" /><use href="#frog3" x="500" y="1820" width="80" height="80" /><use href="#frog4" x="610" y="1820" width="80" height="80" /><use href="#frog5" x="720" y="1820" width="80" height="80" /><use href="#frog1" x="830" y="1820" width="80" height="80" /><use href="#frog2" x="940" y="1820" width="80" height="80" /><use href="#frog3" x="1050" y="1820" width="80" height="80" /><use href="#frog4" x="1160" y="1820" width="80" height="80" /><use href="#frog5" x="1270" y="1820" width="80" height="80" /><use href="#frog1" x="1380" y="1820" width="80" height="80" /><use href="#frog2" x="1490" y="1820" width="80" height="80" /><use href="#frog3" x="1600" y="1820" width="80" height="80" /><use href="#frog4" x="1710" y="1820" width="80" height="80" /><use href="#frog5" x="1820" y="1820" width="80" height="80" /><use href="#frog1" x="1930" y="1820" width="80" height="80" /><use href="#frog2" x="2040" y="1820" width="80" height="80" /><use href="#frog3" x="2150" y="1820" width="80" height="80" /><use href="#frog4" x="-545.0" y="1930" width="80" height="80" /><use href="#frog5" x="-435.0" y="1930" width="80" height="80" /><use href="#frog1" x="-325.0" y="1930" width="80" height="80" /><use href="#frog2" x="-215.0" y="1930" width="80" height="80" /><use href="#frog3" x="-105.0" y="1930" width="80" height="80" /><use href="#frog4" x="5.0" y="1930" width="80" height="80" /><use href="#frog5" x="115.0" y="1930" width="80" height="80" /><use href="#frog1" x="225.0" y="1930" width="80" height="80" /><use href="#frog2" x="335.0" y="1930" width="80" height="80" /><use href="#frog3" x="445.0" y="1930" width="80" height="80" /><use href="#frog4" x="555.0" y="1930" width="80" height="80" /><use href="#frog5" x="665.0" y="1930" width="80" height="80" /><use href="#frog1" x="775.0" y="1930" width="80" height="80" /><use href="#frog2" x="885.0" y="1930" width="80" height="80" /><use href="#frog3" x="995.0" y="1930" width="80" height="80" /><use href="#frog4" x="1105.0" y="1930" width="80" height="80" /><use href="#frog5" x="1215.0" y="1930" width="80" height="80" /><use href="#frog1" x="1325.0" y="1930" width="80" height="80" /><use href="#frog2" x="1435.0" y="1930" width="80" height="80" /><use href="#frog3" x="1545.0" y="1930" width="80" height="80" /><use href="#frog4" x="1655.0" y="1930" width="80" height="80" /><use href="#frog5" x="1765.0" y="1930" width="80" height="80" /><use href="#frog1" x="1875.0" y="1930" width="80" height="80" /><use href="#frog2" x="1985.0" y="1930" width="80" height="80" /><use href="#frog3" x="2095.0" y="1930" width="80" height="80" /><use href="#frog5" x="-600" y="2040" width="80" height="80" /><use href="#frog1" x="-490" y="2040" width="80" height="80" /><use href="#frog2" x="-380" y="2040" width="80" height="80" /><use href="#frog3" x="-270" y="2040" width="80" height="80" /><use href="#frog4" x="-160" y="2040" width="80" height="80" /><use href="#frog5" x="-50" y="2040" width="80" height="80" /><use href="#frog1" x="60" y="2040" width="80" height="80" /><use href="#frog2" x="170" y="2040" width="80" height="80" /><use href="#frog3" x="280" y="2040" width="80" height="80" /><use href="#frog4" x="390" y="2040" width="80" height="80" /><use href="#frog5" x="500" y="2040" width="80" height="80" /><use href="#frog1" x="610" y="2040" width="80" height="80" /><use href="#frog2" x="720" y="2040" width="80" height="80" /><use href="#frog3" x="830" y="2040" width="80" height="80" /><use href="#frog4" x="940" y="2040" width="80" height="80" /><use href="#frog5" x="1050" y="2040" width="80" height="80" /><use href="#frog1" x="1160" y="2040" width="80" height="80" /><use href="#frog2" x="1270" y="2040" width="80" height="80" /><use href="#frog3" x="1380" y="2040" width="80" height="80" /><use href="#frog4" x="1490" y="2040" width="80" height="80" /><use href="#frog5" x="1600" y="2040" width="80" height="80" /><use href="#frog1" x="1710" y="2040" width="80" height="80" /><use href="#frog2" x="1820" y="2040" width="80" height="80" /><use href="#frog3" x="1930" y="2040" width="80" height="80" /><use href="#frog4" x="2040" y="2040" width="80" height="80" /><use href="#frog5" x="2150" y="2040" width="80" height="80" /><use href="#frog1" x="-545.0" y="2150" width="80" height="80" /><use href="#frog2" x="-435.0" y="2150" width="80" height="80" /><use href="#frog3" x="-325.0" y="2150" width="80" height="80" /><use href="#frog4" x="-215.0" y="2150" width="80" height="80" /><use href="#frog5" x="-105.0" y="2150" width="80" height="80" /><use href="#frog1" x="5.0" y="2150" width="80" height="80" /><use href="#frog2" x="115.0" y="2150" width="80" height="80" /><use href="#frog3" x="225.0" y="2150" width="80" height="80" /><use href="#frog4" x="335.0" y="2150" width="80" height="80" /><use href="#frog5" x="445.0" y="2150" width="80" height="80" /><use href="#frog1" x="555.0" y="2150" width="80" height="80" /><use href="#frog2" x="665.0" y="2150" width="80" height="80" /><use href="#frog3" x="775.0" y="2150" width="80" height="80" /><use href="#frog4" x="885.0" y="2150" width="80" height="80" /><use href="#frog5" x="995.0" y="2150" width="80" height="80" /><use href="#frog1" x="1105.0" y="2150" width="80" height="80" /><use href="#frog2" x="1215.0" y="2150" width="80" height="80" /><use href="#frog3" x="1325.0" y="2150" width="80" height="80" /><use href="#frog4" x="1435.0" y="2150" width="80" height="80" /><use href="#frog5" x="1545.0" y="2150" width="80" height="80" /><use href="#frog1" x="1655.0" y="2150" width="80" height="80" /><use href="#frog2" x="1765.0" y="2150" width="80" height="80" /><use href="#frog3" x="1875.0" y="2150" width="80" height="80" /><use href="#frog4" x="1985.0" y="2150" width="80" height="80" /><use href="#frog5" x="2095.0" y="2150" width="80" height="80" /></g>
</svg>